#!OML:ASF H:\Terrain\Patient Classification 1\Animal2\Wednesday\Animal2.ASF
:FULLY-SPECIFIED
:DEGREES
1501
root 17.3311 16.5747 -1.07738 -1.80099 22.4013 -1.48071
lowerback 6.10432 0.174473 3.12939
upperback -0.600232 0.758754 6.21016
thorax -4.10626 0.397043 4.64028
lowerneck 18.2427 14.5506 17.6458
upperneck -24.7997 19.4772 -28.9746
head -5.21978 11.4062 -14.0371
rclavicle -4.73977e-015 -1.74931e-014
rhumerus -30.7564 20.95 -87.6863
rradius 94.4362
rwrist -23.4413
rhand -23.6142 -1.06566
rfingers 7.12502
rthumb 2.84996 -31.0264
lclavicle -4.73977e-015 -1.74931e-014
lhumerus -31.6169 4.31703 70.1003
lradius 123.738
lwrist 43.1596
lhand -10.9456 36.0142
lfingers 7.12502
lthumb 15.0729 65.4454
rfemur -1.8993 16.3917 12.3065
rtibia 40.7688
rfoot -30.406 -15.6553
rtoes -18.3422
lfemur -26.1777 -7.83074 -1.55806
ltibia 45.9385
lfoot -20.6654 -9.72516
ltoes -40.4534
1502
root 17.366 16.5796 -1.06195 -1.5438 22.1038 -1.49997
lowerback 6.15731 0.226711 2.60863
upperback -0.456004 0.772118 6.02484
thorax -3.98911 0.410719 4.73594
lowerneck 18.2144 14.6175 17.5602
upperneck -25.1208 19.5145 -28.8794
head -5.32496 11.4166 -14.0229
rclavicle 5.49143e-014 9.54166e-015
rhumerus -31.2053 20.5769 -88.0051
rradius 94.6918
rwrist -23.4052
rhand -23.3659 -1.31795
rfingers 7.12502
rthumb 3.08975 -31.2753
lclavicle 5.49143e-014 9.54166e-015
lhumerus -31.0266 4.39236 69.5992
lradius 123.826
lwrist 43.4719
lhand -12.0743 35.6204
lfingers 7.12502
lthumb 13.9854 65.13
rfemur -2.08774 16.3703 12.1003
rtibia 40.5863
rfoot -30.7484 -15.1373
rtoes -17.0693
lfemur -26.2936 -7.87097 -1.58606
ltibia 46.1401
lfoot -21.0221 -9.36333
ltoes -40.5156
1503
root 17.3989 16.5821 -1.05766 -1.30353 21.8743 -1.82827
lowerback 6.24438 0.231514 2.41127
upperback -0.378502 0.757414 5.90583
thorax -3.95666 0.404856 4.72257
lowerneck 18.2922 14.6366 17.578
upperneck -25.4497 19.5216 -28.8325
head -5.43989 11.4141 -14.0595
rclavicle 2.21148e-014 1.43125e-014
rhumerus -31.7205 20.2323 -88.3619
rradius 95.0719
rwrist -23.3603
rhand -23.2542 -1.82344
rfingers 7.12502
rthumb 3.19764 -31.7792
lclavicle 2.21148e-014 1.43125e-014
lhumerus -30.6582 4.54787 69.1178
lradius 124.14
lwrist 43.7555
lhand -13.2154 35.6974
lfingers 7.12502
lthumb 12.8856 65.2796
rfemur -2.45483 16.1922 12.1169
rtibia 40.3965
rfoot -31.1159 -14.4607
rtoes -14.8248
lfemur -26.6021 -7.82676 -1.28443
ltibia 46.2933
lfoot -21.3086 -9.01805
ltoes -40.9708
1504
root 17.4315 16.5849 -1.05786 -0.971399 21.7161 -2.05507
lowerback 6.34589 0.221463 2.19787
upperback -0.337664 0.72224 5.73693
thorax -3.9686 0.388625 4.66811
lowerneck 18.2239 14.6833 17.5156
upperneck -25.6013 19.5441 -28.7671
head -5.48437 11.4193 -14.0348
rclavicle -7.10655e-015 4.13472e-014
rhumerus -32.1743 19.8856 -88.6867
rradius 95.4212
rwrist -23.2925
rhand -23.2183 -2.11439
rfingers 7.12502
rthumb 3.23227 -32.0696
lclavicle -7.10655e-015 4.13472e-014
lhumerus -30.2574 4.77466 68.6395
lradius 124.523
lwrist 44.1795
lhand -14.2002 36.1759
lfingers 7.12502
lthumb 11.9361 65.8156
rfemur -2.87894 15.9276 12.011
rtibia 40.2063
rfoot -30.8089 -14.6048
rtoes -16.4527
lfemur -27.0083 -7.79253 -1.09063
ltibia 46.4383
lfoot -21.4943 -8.70882
ltoes -41.42
1505
root 17.465 16.5969 -1.05182 -0.486832 21.386 -2.08449
lowerback 6.28722 0.331641 1.79295
upperback -0.341089 0.824563 5.53501
thorax -3.94738 0.444402 4.6741
lowerneck 18.2003 14.6723 17.3752
upperneck -25.6228 19.4974 -28.5916
head -5.54153 11.3847 -13.962
rclavicle -1.88845e-014 -4.77083e-015
rhumerus -32.6524 19.4647 -88.8383
rradius 95.7846
rwrist -23.2798
rhand -22.8619 -2.48526
rfingers 7.12502
rthumb 3.57644 -32.435
lclavicle -1.88845e-014 -4.77083e-015
lhumerus -29.8762 4.89825 68.3726
lradius 124.762
lwrist 44.6076
lhand -14.8409 36.2828
lfingers 7.12502
lthumb 11.3182 65.9574
rfemur -3.42827 15.8267 11.695
rtibia 40.0302
rfoot -30.2065 -14.9211
rtoes -19.4836
lfemur -27.3575 -7.67706 -1.11073
ltibia 46.5598
lfoot -21.5872 -8.34306
ltoes -41.227
1506
root 17.4901 16.6022 -1.04363 -0.275613 21.0592 -2.50493
lowerback 6.35438 0.434013 1.75025
upperback -0.344716 0.954343 5.39178
thorax -3.99563 0.507716 4.53419
lowerneck 18.3235 14.6172 17.2481
upperneck -25.7126 19.4259 -28.279
head -5.67052 11.3226 -13.8769
rclavicle 1.20762e-014 -3.81667e-014
rhumerus -33.2814 18.99 -89.0962
rradius 96.2446
rwrist -23.2286
rhand -22.5847 -3.03605
rfingers 7.12502
rthumb 3.84417 -32.9811
lclavicle 1.20762e-014 -3.81667e-014
lhumerus -29.7252 4.85546 68.1197
lradius 125.021
lwrist 45.0101
lhand -15.6098 36.0114
lfingers 7.12502
lthumb 10.5766 65.7252
rfemur -3.8153 15.7997 11.8906
rtibia 39.8491
rfoot -29.8711 -14.8832
rtoes -20.3475
lfemur -27.5659 -7.57698 -0.698541
ltibia 46.6759
lfoot -21.7361 -7.98738
ltoes -41.0561
1507
root 17.5068 16.6039 -1.03965 -0.198941 20.8847 -2.91201
lowerback 6.61459 0.447474 1.65286
upperback -0.288448 0.967718 5.25575
thorax -4.08335 0.514156 4.44403
lowerneck 18.3425 14.6215 17.0733
upperneck -25.8434 19.3968 -28.0418
head -5.77693 11.2913 -13.7963
rclavicle -2.09718e-014 4.77083e-015
rhumerus -33.8814 18.6254 -89.4516
rradius 96.6577
rwrist -23.1836
rhand -22.51 -2.81588
rfingers 7.12502
rthumb 3.91632 -32.7596
lclavicle -2.09718e-014 4.77083e-015
lhumerus -29.7283 4.91019 67.8621
lradius 125.382
lwrist 45.5031
lhand -16.7188 35.951
lfingers 7.12502
lthumb 9.50667 65.7165
rfemur -4.02566 15.6707 12.1394
rtibia 39.6496
rfoot -30.1248 -14.1403
rtoes -18.1372
lfemur -27.7217 -7.61463 -0.280686
ltibia 46.7879
lfoot -21.9455 -7.72455
ltoes -41.2653
1508
root 17.5254 16.6126 -1.03895 -0.0535917 20.713 -3.2506
lowerback 6.81055 0.478002 1.4783
upperback -0.185698 0.992069 5.13498
thorax -4.08863 0.527299 4.41226
lowerneck 18.1874 14.6879 16.8799
upperneck -25.9286 19.4252 -27.861
head -5.81782 11.2925 -13.6954
rclavicle -1.45113e-014 -1.74931e-014
rhumerus -34.2813 18.3861 -89.6689
rradius 96.9781
rwrist -23.6101
rhand -22.4284 -2.18428
rfingers 7.12502
rthumb 3.99512 -32.1266
lclavicle -1.45113e-014 -1.74931e-014
lhumerus -29.5202 5.1362 67.7888
lradius 125.585
lwrist 45.9528
lhand -17.5685 36.0102
lfingers 7.12502
lthumb 8.68673 65.8114
rfemur -4.2995 15.3914 12.2644
rtibia 39.4211
rfoot -30.115 -13.5776
rtoes -16.9514
lfemur -27.945 -7.5661 0.0495107
ltibia 46.8983
lfoot -22.1184 -7.51641
ltoes -41.3381
1509
root 17.5478 16.6232 -1.03693 0.000327376 20.6812 -3.82337
lowerback 7.00419 0.459267 1.6989
upperback -0.140997 0.983984 4.97336
thorax -4.14352 0.516103 4.11682
lowerneck 18.1959 14.6973 16.8419
upperneck -26.0184 19.4469 -27.6287
head -5.88009 11.2758 -13.622
rclavicle -4.44284e-014 9.54166e-015
rhumerus -34.7323 18.0976 -89.9604
rradius 97.2408
rwrist -24.0753
rhand -22.4476 -2.00531
rfingers 7.12502
rthumb 3.97656 -31.9479
lclavicle -4.44284e-014 9.54166e-015
lhumerus -29.3872 5.29855 67.6471
lradius 125.712
lwrist 46.3682
lhand -17.879 35.9926
lfingers 7.12502
lthumb 8.38707 65.8061
rfemur -4.44914 14.9991 12.6763
rtibia 39.1545
rfoot -29.6027 -13.8106
rtoes -18.0454
lfemur -28.1918 -7.64013 0.621948
ltibia 46.9895
lfoot -22.2422 -7.25387
ltoes -41.468
